<svg xmlns="http://www.w3.org/2000/svg" xmlns:xlink="http://www.w3.org/1999/xlink" width="500" zoomAndPan="magnify" viewBox="0 0 375 374.999991" height="500" preserveAspectRatio="xMidYMid meet" version="1.0"><defs><clipPath id="0c18966638"><path d="M 65.355469 48 L 309.855469 48 L 309.855469 337.46875 L 65.355469 337.46875 Z M 65.355469 48 " clip-rule="nonzero"/></clipPath><clipPath id="bda37aca11"><path d="M 114 37.5 L 261 37.5 L 261 337.5 L 114 337.5 Z M 114 37.5 " clip-rule="nonzero"/></clipPath></defs><g clip-path="url(#0c18966638)"><path fill="#d3f3ee" d="M 307.191406 90.175781 C 303.574219 86.078125 297.574219 87.152344 292.746094 86.058594 C 257.785156 80.304688 224.941406 66.035156 193.566406 50.042969 C 192.074219 49.332031 190.515625 48.722656 188.953125 48.179688 L 186.691406 48.179688 C 181.242188 49.808594 176.414062 52.914062 171.285156 55.28125 C 143.769531 68.785156 114.910156 80.417969 84.574219 85.738281 C 80.207031 86.621094 75.664062 86.550781 71.394531 87.828125 C 68.003906 89.320312 65.515625 92.863281 65.707031 96.621094 C 65.359375 117.523438 66.117188 138.4375 67.75 159.273438 C 70.113281 185.785156 73.933594 212.449219 82.863281 237.640625 C 87.191406 249.328125 92.695312 260.8125 100.992188 270.238281 C 123.632812 297.011719 151.753906 318.953125 182.53125 335.652344 C 183.839844 336.308594 185.210938 336.835938 186.613281 337.257812 L 188.578125 337.257812 C 194.070312 335.710938 198.605469 332.0625 203.625 329.488281 C 227.472656 315.386719 249.285156 297.835938 268.070312 277.476562 C 273.746094 271.0625 279.578125 264.636719 283.636719 257.050781 C 293.082031 240.28125 298.070312 221.457031 301.796875 202.714844 C 308.21875 168.542969 309.878906 133.660156 309.6875 98.964844 C 309.792969 95.863281 309.554688 92.46875 307.191406 90.175781 Z M 293.921875 195.03125 C 290.078125 216.082031 285.085938 237.515625 273.761719 255.941406 C 263.703125 270.488281 250.734375 282.75 237.46875 294.324219 C 222.164062 307.378906 205.335938 318.558594 187.679688 328.191406 C 156.699219 311.390625 128.328125 289.300781 105.9375 261.996094 C 94.398438 247.25 88.9375 228.898438 84.621094 210.96875 C 76.277344 173.355469 74.300781 134.625 74.839844 96.195312 C 114.804688 91.691406 152.152344 75.257812 187.683594 57.261719 C 223.207031 75.28125 260.601562 91.667969 300.578125 96.175781 C 301.078125 129.222656 299.496094 162.410156 293.921875 195.03125 Z M 293.921875 195.03125 " fill-opacity="1" fill-rule="nonzero"/></g><path fill="#d3f3ee" d="M 92.792969 111.890625 C 93.460938 147.449219 95.503906 183.390625 104.910156 217.851562 C 108.59375 230.558594 113.332031 243.464844 122.40625 253.386719 C 140.664062 275.195312 163.300781 292.976562 187.691406 307.464844 C 213.644531 292.050781 237.609375 272.820312 256.457031 249.140625 C 265.382812 236.902344 269.613281 222.039062 273.105469 207.496094 C 280.136719 176.164062 282.035156 143.921875 282.554688 111.898438 C 249.347656 105.496094 217.824219 92.578125 187.683594 77.535156 C 157.523438 92.570312 126.011719 105.511719 92.792969 111.890625 Z M 92.792969 111.890625 " fill-opacity="1" fill-rule="nonzero"/><g clip-path="url(#bda37aca11)"><path fill="#7fb7be" d="M 251.402344 39.894531 C 254.078125 38.632812 256.988281 38.042969 259.890625 37.597656 C 260.277344 37.519531 260.667969 37.59375 261.011719 37.785156 C 260.445312 38.9375 259.503906 39.835938 258.695312 40.8125 C 253.414062 46.8125 248.976562 53.527344 245.367188 60.648438 C 244.441406 62.414062 243.632812 64.242188 242.761719 66.035156 C 239.105469 69.28125 235.226562 72.359375 232.15625 76.199219 C 234.601562 74.453125 236.964844 72.597656 239.394531 70.832031 C 240.019531 70.382812 240.621094 69.894531 241.304688 69.542969 C 239.511719 73.722656 237.882812 77.976562 236.496094 82.3125 C 235.34375 85.84375 234.464844 89.453125 233.386719 93.003906 C 230.777344 101.625 227.417969 110.003906 223.667969 118.191406 C 222.132812 121.636719 220.367188 124.972656 218.921875 128.457031 C 217.144531 132.683594 215.597656 137.027344 213.332031 141.027344 C 210.675781 145.773438 206.625 149.585938 202.167969 152.628906 C 205.632812 151.289062 208.757812 149.097656 211.261719 146.355469 C 212.609375 144.921875 213.683594 143.273438 214.726562 141.617188 C 214.402344 144.164062 213.570312 146.613281 212.917969 149.089844 C 211.207031 155.105469 209.300781 161.0625 207.261719 166.976562 C 206.125 170.164062 204.976562 173.351562 203.585938 176.4375 C 204.316406 175.738281 205.03125 175.019531 205.777344 174.339844 C 202.125 183.734375 200.445312 193.75 196.917969 203.1875 C 195.523438 206.960938 193.882812 210.636719 192 214.191406 C 190.472656 217.1875 188.429688 219.886719 186.269531 222.449219 C 185.125 223.75 183.957031 225.039062 182.664062 226.191406 C 180.792969 227.960938 178.59375 229.328125 176.574219 230.917969 C 172.015625 233.625 167.554688 236.578125 163.636719 240.167969 C 165.878906 238.554688 168.132812 236.902344 170.648438 235.738281 C 167.882812 238.046875 165.402344 240.703125 163.339844 243.664062 C 162.789062 244.492188 162.050781 245.269531 161.894531 246.292969 C 161.757812 246.441406 161.621094 246.589844 161.480469 246.742188 C 161.988281 246.347656 162.628906 246.273438 163.25 246.199219 C 164.828125 245.917969 166.511719 246.246094 167.871094 247.101562 C 169.269531 247.988281 169.957031 249.722656 169.800781 251.339844 C 169.835938 251.882812 169.484375 252.476562 169.804688 252.984375 C 170.921875 254.949219 171.394531 257.3125 170.945312 259.542969 C 170.609375 261.132812 169.738281 262.558594 168.648438 263.746094 C 168.296875 264.074219 168.160156 264.847656 167.539062 264.625 L 167.535156 264.761719 C 166.800781 265.183594 166.066406 265.609375 165.292969 265.964844 C 165.277344 266.070312 165.246094 266.289062 165.226562 266.398438 C 165.375 266.390625 165.660156 266.378906 165.804688 266.371094 C 165.207031 266.449219 165.582031 266.992188 165.539062 267.339844 C 165.601562 268.394531 164.941406 269.386719 164.0625 269.925781 C 163.449219 270.332031 162.722656 270.488281 162.015625 270.660156 C 161.71875 275.144531 162.402344 279.785156 164.550781 283.777344 C 166.203125 286.898438 168.738281 289.507812 171.710938 291.398438 C 175.222656 293.652344 179.242188 294.980469 183.308594 295.804688 C 184.933594 296.140625 186.546875 296.640625 187.964844 297.523438 C 189.433594 298.460938 190.851562 299.644531 191.554688 301.285156 C 192.851562 304.207031 193.03125 307.503906 192.707031 310.648438 C 192.285156 314.917969 191.070312 319.078125 189.382812 323.011719 C 187.980469 326.183594 186.246094 329.234375 184.027344 331.910156 C 185.417969 332.660156 185.425781 335.15625 183.859375 335.667969 C 173.128906 337.175781 162.273438 337.496094 151.449219 337.449219 C 142.007812 337.402344 132.515625 337.210938 123.175781 335.675781 C 121.628906 335.230469 121.570312 332.851562 122.804688 331.992188 C 120.476562 329.347656 118.742188 326.238281 117.335938 323.019531 C 115.828125 319.453125 114.722656 315.699219 114.277344 311.847656 C 114.003906 309.351562 114.019531 306.789062 114.636719 304.339844 C 115.019531 302.777344 115.753906 301.324219 116.601562 299.96875 C 117.835938 298.253906 119.703125 297.074219 121.679688 296.398438 C 123.003906 295.925781 124.414062 295.769531 125.773438 295.425781 C 129.6875 294.484375 133.53125 293.007812 136.800781 290.621094 C 139.507812 288.65625 141.753906 286.042969 143.199219 283.023438 C 144.96875 279.367188 145.574219 275.246094 145.375 271.21875 C 140.800781 271.5625 136.445312 268.015625 135.65625 263.539062 C 135.5625 262.957031 135.519531 262.359375 135.269531 261.816406 C 134.371094 259.554688 134.390625 256.859375 135.644531 254.734375 C 136.378906 253.429688 137.59375 252.496094 138.84375 251.714844 C 139.40625 251.386719 139.507812 250.65625 139.984375 250.230469 C 141.898438 248.285156 145.058594 247.738281 147.515625 248.9375 C 145.945312 247 143.9375 245.402344 141.667969 244.363281 C 144.746094 245.445312 147.273438 247.746094 149.230469 250.3125 C 147.414062 246.332031 144.480469 242.660156 140.445312 240.78125 C 141.796875 241.132812 142.945312 242.003906 144.066406 242.808594 C 146.039062 244.304688 147.625 246.242188 148.96875 248.308594 C 148.628906 247.132812 148.398438 245.929688 148.136719 244.734375 C 149.195312 246.558594 150.230469 248.398438 151.445312 250.117188 C 150.429688 247.945312 149.398438 245.773438 148.554688 243.523438 C 148.035156 242.03125 147.320312 240.574219 147.183594 238.980469 C 146.425781 233.21875 146.128906 227.398438 146.183594 221.589844 C 146.003906 213 147.238281 204.46875 148.355469 195.972656 C 149.589844 198.585938 150.546875 201.320312 151.667969 203.980469 C 152 204.722656 152.238281 205.523438 152.71875 206.195312 C 151.796875 201.476562 150.617188 196.808594 149.621094 192.105469 C 149.492188 191.414062 149.265625 190.726562 149.277344 190.019531 C 149.679688 186.675781 150.292969 183.367188 150.855469 180.046875 C 151.710938 175.125 152.558594 170.203125 153.378906 165.273438 C 154.046875 161.140625 154.773438 157.011719 155.222656 152.847656 C 155.457031 155.476562 155.734375 158.117188 156.453125 160.667969 C 157.761719 165.644531 160.210938 170.320312 163.550781 174.230469 C 162.789062 172.738281 162.058594 171.222656 161.421875 169.671875 C 161.285156 169.449219 161.425781 169.253906 161.585938 169.101562 C 162.460938 170.832031 163.238281 172.609375 164.234375 174.273438 C 162.691406 171.164062 161.070312 168.070312 159.921875 164.777344 C 159.660156 164.761719 159.511719 164.625 159.480469 164.375 C 158.089844 159.636719 157.203125 154.59375 158.15625 149.691406 C 158.445312 148.410156 159.738281 147.859375 160.59375 147.019531 C 161.371094 146.273438 161.507812 145.117188 161.375 144.097656 C 161.007812 140.992188 161.714844 137.882812 162.746094 134.972656 C 164.921875 128.957031 168.46875 123.582031 171.0625 117.757812 C 172.792969 114.582031 174.882812 111.621094 176.898438 108.625 C 181.546875 101.921875 186.292969 95.28125 191.226562 88.78125 C 192.484375 87.199219 193.667969 85.542969 195.078125 84.09375 C 194.625 85.339844 194.105469 86.617188 194.230469 87.972656 C 194.265625 89.289062 195.066406 90.382812 195.511719 91.574219 C 195.589844 87.800781 196.988281 84.210938 198.746094 80.917969 C 200.359375 77.933594 202.320312 75.121094 204.683594 72.683594 C 205.734375 71.644531 206.863281 70.664062 208.15625 69.9375 C 207.5625 71.199219 207.257812 72.597656 207.289062 73.996094 C 207.949219 70.914062 210.074219 68.449219 212.136719 66.175781 C 217.25 60.851562 223.257812 56.484375 229.355469 52.363281 C 236.40625 47.714844 243.683594 43.34375 251.402344 39.894531 M 200.277344 112.238281 C 194.980469 122.34375 190.105469 132.675781 185.714844 143.210938 C 180.136719 156.527344 175.371094 170.167969 171.101562 183.953125 C 170.929688 183.949219 170.589844 183.941406 170.417969 183.9375 C 170.191406 183.089844 169.496094 182.496094 169.046875 181.769531 C 167.308594 179.414062 165.835938 176.878906 164.3125 174.390625 C 165.960938 177.5 167.941406 180.425781 170.027344 183.265625 C 170.160156 183.472656 170.28125 183.691406 170.390625 183.921875 C 170.207031 183.921875 169.84375 183.914062 169.664062 183.914062 C 169.960938 184.40625 169.996094 184.957031 169.855469 185.511719 C 170.042969 185.511719 170.417969 185.515625 170.605469 185.515625 C 170.375 186.503906 170.042969 187.464844 169.761719 188.441406 C 164.058594 207.660156 159.277344 227.132812 154.90625 246.691406 C 155.417969 246.683594 156.035156 246.804688 156.484375 246.65625 C 159.265625 234.722656 162.105469 222.800781 165.195312 210.941406 C 167.832031 200.804688 170.542969 190.683594 173.617188 180.664062 C 178.019531 166.324219 182.9375 152.121094 188.835938 138.320312 C 192.445312 130.230469 196.234375 122.222656 200.164062 114.28125 C 200.5 113.539062 201.027344 112.859375 201.105469 112.023438 C 200.816406 112.046875 200.382812 111.847656 200.277344 112.238281 M 161.207031 247.847656 C 162.457031 247.507812 163.78125 247.316406 165.054688 247.636719 C 166.773438 247.945312 168.332031 249.226562 168.742188 250.957031 C 168.824219 251.425781 169.011719 251.859375 169.328125 252.226562 C 169.820312 250.574219 169.195312 248.578125 167.753906 247.597656 C 166.601562 246.871094 165.191406 246.578125 163.84375 246.730469 C 162.898438 246.871094 161.878906 247.113281 161.207031 247.847656 M 139.875 251.121094 C 141.320312 250.484375 142.871094 250.011719 144.464844 250.0625 C 146.011719 250.015625 147.488281 250.554688 148.882812 251.160156 C 148.339844 250.542969 147.773438 249.910156 147.027344 249.535156 C 144.6875 248.339844 141.449219 248.976562 139.875 251.121094 M 159.894531 249.984375 C 159.183594 250.425781 159 251.300781 158.871094 252.066406 C 159.777344 251.085938 160.917969 250.289062 162.226562 249.964844 C 163.507812 249.628906 164.835938 249.941406 166.066406 250.3125 C 164.910156 249.457031 163.488281 248.953125 162.039062 248.996094 C 161.210938 248.953125 160.542969 249.550781 159.894531 249.984375 M 158.417969 254.238281 C 159.113281 254.292969 159.789062 254.464844 160.433594 254.722656 C 162.445312 254.046875 164.6875 254.488281 166.433594 255.601562 L 166.535156 255.589844 C 167.28125 256.464844 168.300781 257.109375 168.828125 258.164062 C 169.007812 258.410156 169.039062 258.804688 169.34375 258.941406 C 170.164062 257.292969 170.234375 255.203125 169.101562 253.675781 C 168.511719 254.585938 167.550781 255.125 166.671875 255.71875 C 166.445312 255.015625 167.238281 255.167969 167.492188 254.761719 C 168.019531 254.074219 168.160156 253.1875 168.160156 252.347656 C 166.609375 251.027344 164.480469 250.238281 162.449219 250.695312 C 160.644531 251.199219 159.359375 252.691406 158.417969 254.238281 M 139.398438 252.222656 C 139.152344 253.03125 139.238281 253.890625 139.386719 254.710938 C 141.199219 253.402344 143.390625 252.558594 145.636719 252.511719 C 146.53125 252.742188 147.375 252.332031 148.25 252.210938 C 145.519531 250.84375 142.070312 250.609375 139.398438 252.222656 M 136.101562 255.140625 C 134.976562 256.964844 134.871094 259.285156 135.480469 261.304688 C 135.800781 258.796875 137.15625 256.503906 139.113281 254.925781 C 138.910156 254.125 138.773438 253.300781 138.898438 252.480469 C 137.851562 253.230469 136.769531 254.015625 136.101562 255.140625 M 148.007812 252.9375 C 148.933594 253.3125 149.828125 253.765625 150.667969 254.308594 C 150.453125 253.664062 149.933594 253.1875 149.324219 252.925781 C 148.886719 252.832031 148.441406 252.886719 148.007812 252.9375 M 168.546875 253.867188 C 168.84375 253.886719 169.03125 253.414062 168.90625 253.175781 C 168.605469 253.121094 168.464844 253.628906 168.546875 253.867188 M 139.738281 255.664062 C 140.21875 256.417969 140.816406 257.136719 141.644531 257.523438 C 142.058594 255.84375 143.402344 254.691406 144.605469 253.5625 C 142.894531 254.003906 141.132812 254.511719 139.738281 255.664062 M 145.238281 253.917969 C 143.847656 254.800781 142.59375 256.027344 142.042969 257.613281 C 142.207031 257.667969 142.539062 257.773438 142.703125 257.828125 C 143.402344 256.683594 144.507812 255.753906 145.859375 255.535156 C 147.945312 255.15625 149.957031 256.242188 151.457031 257.601562 C 151.738281 256.78125 150.921875 256.386719 150.386719 255.984375 C 149.058594 255.046875 147.664062 254.125 146.070312 253.722656 C 145.769531 253.574219 145.484375 253.765625 145.238281 253.917969 M 158.328125 254.664062 C 158.246094 255.050781 158.164062 255.441406 158.082031 255.832031 C 158.660156 255.480469 159.265625 255.179688 159.878906 254.902344 C 159.375 254.757812 158.855469 254.65625 158.328125 254.664062 M 161.417969 255.320312 C 162.503906 256.152344 163.285156 257.511719 163.007812 258.910156 C 162.886719 260.039062 162.082031 260.9375 161.195312 261.574219 C 163.746094 263.292969 167.480469 262.128906 168.964844 259.542969 C 168.703125 258.554688 168.019531 257.757812 167.332031 257.035156 C 165.8125 255.5 163.511719 254.933594 161.417969 255.320312 M 158.371094 256.679688 C 158.148438 256.863281 157.828125 257.019531 157.78125 257.339844 C 157.304688 259.65625 156.855469 261.984375 156.378906 264.300781 C 157.933594 264.328125 159.484375 264.261719 161.039062 264.253906 C 162.429688 264.195312 163.898438 264.535156 164.875 265.585938 C 166.4375 264.941406 167.871094 263.90625 168.839844 262.511719 C 169.179688 261.75 169.140625 260.882812 169.09375 260.070312 C 168.101562 261.242188 166.785156 262.199219 165.242188 262.453125 C 163.796875 262.78125 162.269531 262.441406 161.050781 261.617188 C 160.183594 262 159.25 261.855469 158.445312 261.394531 C 159.222656 261.722656 160.101562 262.003906 160.898438 261.542969 C 160.449219 261.035156 160.039062 260.480469 159.898438 259.808594 L 159.738281 259.863281 C 159.730469 259.5625 159.722656 259.265625 159.734375 258.972656 C 160.09375 259.242188 159.890625 259.734375 160.039062 260.101562 C 160.246094 260.632812 160.597656 261.128906 161.058594 261.464844 C 162.335938 260.769531 163.140625 259.183594 162.757812 257.75 C 162.558594 256.769531 161.839844 255.984375 161.011719 255.480469 C 160.050781 255.617188 159.167969 256.132812 158.371094 256.679688 M 136.253906 263.132812 C 137.28125 265.253906 139.367188 266.84375 141.695312 267.25 C 141.839844 265.546875 143.46875 264.460938 145.050781 264.289062 C 143.695312 263.640625 142.480469 262.566406 141.90625 261.152344 C 141.4375 260.074219 141.417969 258.867188 141.585938 257.722656 C 140.699219 257.324219 140.003906 256.621094 139.492188 255.808594 C 137.328125 257.527344 135.808594 260.3125 136.253906 263.132812 M 144.628906 257.070312 C 144.351562 257.261719 143.953125 257.429688 143.941406 257.828125 C 143.042969 258.226562 142.761719 259.414062 142.695312 260.316406 C 142.597656 261.34375 143.3125 262.136719 144.050781 262.738281 C 143.074219 262.238281 142.402344 261.238281 142.316406 260.144531 C 142.199219 259.390625 142.46875 258.664062 142.632812 257.941406 C 142.472656 257.914062 142.152344 257.855469 141.992188 257.828125 C 141.824219 258.710938 141.777344 259.636719 142.027344 260.511719 C 142.390625 261.945312 143.449219 263.113281 144.683594 263.875 C 145.511719 264.425781 146.546875 264.257812 147.488281 264.292969 C 148.269531 264.328125 148.875 263.769531 149.441406 263.304688 C 149.8125 262.921875 150.335938 262.59375 150.398438 262.019531 C 150.597656 261.058594 150.859375 260.109375 151.023438 259.140625 C 150.589844 258.242188 149.730469 257.585938 148.851562 257.144531 C 147.546875 256.554688 145.910156 256.273438 144.628906 257.070312 M 170.328125 257.304688 C 170.125 258.128906 169.796875 258.917969 169.382812 259.660156 C 169.503906 260.289062 169.476562 260.929688 169.511719 261.570312 C 170.136719 260.238281 170.46875 258.773438 170.328125 257.304688 M 149.308594 263.695312 L 149.199219 263.589844 C 148.878906 263.847656 148.546875 264.082031 148.210938 264.320312 C 148.769531 264.300781 149.328125 264.296875 149.890625 264.292969 C 149.949219 263.921875 150.175781 263.53125 150.015625 263.167969 C 149.699219 263.113281 149.527344 263.519531 149.308594 263.695312 M 136.445312 264.082031 C 137.34375 268.058594 141.355469 271.304688 145.484375 270.832031 C 144.910156 270.46875 144.1875 270.492188 143.601562 270.15625 C 142.5 269.644531 141.652344 268.539062 141.707031 267.289062 C 139.574219 267.042969 137.765625 265.714844 136.445312 264.082031 Z M 136.445312 264.082031 " fill-opacity="1" fill-rule="nonzero"/></g></svg>